PathFileType	4	(X/Y/Z)	D:\TRACE\spot_10-12-23\spot_arm_motion_2_2-v60.trc
DataRate	CameraRate	NumFrames	NumMarkers	Units	OrigDataRate	OrigDataStartFrame	OrigNumFrames
100.00	100.00	      14	9	mm	100.00	2626	      7000
Frame#	Time	front left toe			Front right toe			aft left toe			aft right toe			Arm			FL body			FR body			AL Body			AR Body			
		X1	Y1	Z1	X2	Y2	Z2	X3	Y3	Z3	X4	Y4	Z4	X5	Y5	Z5	X6	Y6	Z6	X7	Y7	Z7	X8	Y8	Z8	X9	Y9	Z9	

2626	26.250	-162.47552	31.98518	-72.20416	314.42801	22.10616	27.85083	-278.18872	-12.84225	505.81296	190.75716	-29.72147	605.53357	61.89551	786.40564	-744.28735	53.40384	559.74847	-91.44938	202.44830	564.33667	-62.01790	-120.40644	496.33316	773.34393	26.78520	494.09686	803.97125	
2627	26.260	-163.15675	31.89143	-72.44031	314.03152	21.48939	26.83941	-279.36694	-12.16172	505.61505	189.69965	-29.20339	605.08441	61.42381	788.29950	-743.95703	52.71831	560.40875	-91.39485	201.51892	565.11926	-62.04910	-120.95398	496.20325	773.19385	26.18065	493.63586	803.76239	
2628	26.270	-164.57915	31.88727	-72.89870	312.49548	21.51483	27.25567	-280.38812	-11.40780	505.45203	189.00435	-28.47206	605.14917	60.87632	789.82837	-743.54132	51.82104	561.13043	-91.23801	198.82364	567.18585	-63.01494	-121.66384	495.89691	773.07349	25.69666	493.47192	803.86981	
2629	26.280	-165.67598	31.73600	-73.00891	311.73010	21.71762	26.93617	-281.29495	-10.85391	505.37677	188.00584	-27.76265	605.09363	60.36724	791.15186	-743.42719	51.10875	561.90222	-91.25078	200.13086	566.41071	-62.04095	-122.51465	495.65302	772.97681	24.69459	493.23578	803.91205	
2630	26.290	-166.51810	31.48626	-73.24646	310.75333	21.49776	26.61367	-282.44830	-10.29847	505.23416	186.63168	-27.09391	604.80212	60.04353	791.94244	-743.27374	50.26320	562.61328	-91.36176	198.98920	567.04828	-62.12356	-123.59192	495.65768	773.02393	23.91642	493.09805	803.94794	
2631	26.300	-167.56120	31.39302	-73.60542	309.49026	21.69996	26.69012	-283.45465	-9.55669	505.01102	185.51140	-26.11343	605.10669	59.27606	792.82239	-743.21356	49.34794	563.17261	-91.59013	199.18651	567.13965	-61.80722	-124.14552	495.76639	772.94452	23.33409	493.08527	803.91840	
2632	26.310	-168.48480	31.22529	-73.87222	308.93994	21.56595	26.09120	-284.37900	-8.93994	505.09180	184.80470	-25.58373	604.69226	58.73589	793.30597	-743.10321	48.67080	563.64575	-91.47559	197.45569	567.99786	-62.22269	-124.82220	495.79135	772.95270	22.33337	493.18137	803.80743	
2633	26.320	-169.79906	31.26056	-73.90366	307.61777	21.63122	25.63490	-285.50064	-8.23373	504.87509	183.57285	-24.64792	604.57202	58.25194	793.42371	-743.26068	47.69189	564.29169	-91.48238	196.65666	568.44257	-62.31271	-125.60716	496.06952	772.75354	21.40113	493.33270	803.66479	
2634	26.330	-170.65186	30.84141	-74.13747	306.04758	21.69952	25.51772	-286.56992	-7.47349	504.67282	182.74959	-23.83292	604.54150	57.50262	793.46863	-743.46179	47.00148	564.60687	-91.41929	196.71629	568.72137	-62.19385	-126.45036	496.41553	772.76483	20.73594	493.68256	803.53851	
2635	26.340	-171.81024	30.77680	-74.53317	305.65591	21.39336	25.61564	-287.65240	-6.67703	504.55609	181.34825	-23.00101	604.51593	56.95321	793.23389	-743.74597	45.84564	565.05463	-91.70670	194.86858	569.24194	-62.36010	-127.17694	496.64603	772.74164	20.05543	493.86032	803.44885	
2636	26.350	-172.67822	30.56627	-74.87901	304.03030	21.42048	25.23237	-288.52524	-5.98074	504.58478	179.94759	-22.15627	604.37384	56.21918	792.89752	-743.72119	44.91056	565.45331	-91.97721	193.84529	569.62616	-62.58102	-128.24207	497.14017	772.33093	19.05614	494.32108	803.18884	
2637	26.360	-174.18295	30.36687	-75.08668	303.55029	21.16776	24.92387	-289.86398	-5.13003	504.35190	179.59795	-21.17088	604.09930	55.21562	792.39734	-743.85376	43.89860	565.67969	-92.07875	192.88249	569.90314	-62.87129	-129.01112	497.74548	772.20892	18.30888	494.79828	802.99713	
2638	26.370	-175.02876	30.22582	-75.40724	302.17657	21.78592	24.95899	-290.81979	-4.35377	504.27539	178.08583	-20.42360	603.81799	54.53621	791.68823	-744.22125	43.40136	565.94238	-91.99212	190.30675	571.17957	-63.61848	-129.79933	498.10013	772.28357	17.20691	495.26364	802.99530	
2639	26.380	-176.20155	30.08216	-75.60252	301.01294	21.28875	24.65519	-291.92010	-3.55417	504.20865	177.14142	-19.48253	603.61066	53.87959	790.94385	-744.86102	42.01736	566.16998	-92.39551	191.27872	570.26666	-62.83858	-130.75453	498.76880	772.14185	16.49096	495.84647	802.89972	
